<?xml version="1.0" encoding="utf-8"?>
<!-- Generator: Adobe Illustrator 16.0.0, SVG Export Plug-In . SVG Version: 6.00 Build 0)  -->
<!DOCTYPE svg PUBLIC "-//W3C//DTD SVG 1.1//EN" "http://www.w3.org/Graphics/SVG/1.1/DTD/svg11.dtd">
<svg version="1.1" id="Capa_1" xmlns="http://www.w3.org/2000/svg" xmlns:xlink="http://www.w3.org/1999/xlink" x="0px" y="0px"
	width="230px" height="230px" viewBox="0 0 230 230" enable-background="new 0 0 230 230" xml:space="preserve">
	<path fill-rule="evenodd" clip-rule="evenodd" fill="#eeeeee" d="M230.033,206.34c0,2.318,0,4.638,0,6.954
		c-0.492,0.238-0.456,0.755-0.552,1.164c-3.799,16.255-23.297,22.362-35.822,9.797c-18.827-18.894-38.056-37.38-57.114-56.04
		c-2.631-2.577-2.627-2.569-5.791-0.859c-18.843,10.182-38.835,13.149-59.744,9.077c-16.279-3.17-30.584-10.549-42.779-21.962
		c-14.335-13.415-23.159-29.863-26.792-49.206C0.898,102.384,0.912,99.415,0,96.602c0-4.767,0-9.532,0-14.298
		c0.367-0.261,0.332-0.666,0.364-1.044c0.459-5.333,1.246-10.628,2.807-15.741C13.881,30.458,37.02,9.052,72.674,1.439
		C75.526,0.831,78.479,0.886,81.278,0c4.728,0,9.456,0,14.186,0c0.292,0.479,0.782,0.341,1.206,0.384
		c5.154,0.518,10.243,1.402,15.243,2.78c35.211,9.703,60.417,39.818,64.368,76.022c2.097,19.227-1.559,37.422-11.196,54.244
		c-1.129,1.972-0.85,2.976,0.704,4.482c18.914,18.351,37.734,36.8,56.632,55.172c3.695,3.593,6.373,7.672,7.283,12.826
		C229.73,206.067,229.92,206.199,230.033,206.34z M141.378,89.057c-0.022-29.155-23.887-53.178-52.885-53.237
		C59.461,35.76,35.479,59.941,35.59,89.161c0.109,29.26,23.941,53.2,52.911,53.151C117.466,142.265,141.398,118.162,141.378,89.057z"
		/>
	</svg>